<svg width="43" height="48" viewBox="0 0 43 48" fill="none" xmlns="http://www.w3.org/2000/svg">
<g filter="url(#filter0_i_12_291)">
<path d="M13.0908 4.05552C8.77424 6.22875 4.94401 8.34325 4.64003 8.63693C4.15365 9.10682 6.70713 10.5752 12.7261 13.4533L21.4809 17.6823L29.8101 13.3945C34.3699 11.0451 38.0177 8.93061 37.8353 8.69566C37.5921 8.28451 21.1161 -0.173481 20.9337 0.00272751C20.9337 0.0614643 17.3467 1.88228 13.0908 4.05552Z" fill="white"/>
<path d="M0.0154932 25.266L0.197885 37.6594L6.27761 40.7724C9.62146 42.5344 12.6613 43.9441 13.0869 43.9441C13.6341 43.9441 13.8773 42.2408 13.9989 38.2467C14.1812 33.1954 14.3028 32.4906 15.3364 32.3144C17.1603 31.962 17.5251 33.2542 17.5251 40.185V46.646L19.4706 47.527C21.3553 48.4081 21.4769 48.4081 31.7516 43.0631L42.148 37.7181L42.3304 25.2073C42.452 13.93 42.3912 12.6965 41.4792 13.0489C40.9928 13.2252 36.1898 15.5746 30.9005 18.2765C22.0849 22.7991 21.1729 23.1515 19.8354 22.4467C17.7075 21.272 17.5251 21.4482 17.5251 23.9151C17.5251 26.3233 16.3092 27.8504 14.7892 27.2631C14.1205 27.0281 13.8773 26.0296 13.8773 23.3865C13.8773 20.0385 13.7557 19.8036 11.9318 18.6876C8.7703 16.8081 8.46631 17.043 8.28392 21.7419C8.10153 25.8534 8.04073 26.0296 6.58159 26.0296C5.06166 26.0296 5.06166 25.9709 4.87927 20.5672C4.69688 15.1047 4.69688 15.1047 2.75137 13.9887C1.65702 13.3426 0.623466 12.814 0.319479 12.814C0.0762904 12.814 -0.045304 18.3939 0.0154932 25.266ZM8.40551 31.8445C9.56066 33.1954 8.89189 35.4274 7.31116 35.6036C4.63608 36.0147 3.23775 33.724 5.12246 31.962C6.27761 30.7872 7.43276 30.7872 8.40551 31.8445Z" fill="white"/>
</g>
<defs>
<filter id="filter0_i_12_291" x="0" y="0" width="42.3772" height="51.9624" filterUnits="userSpaceOnUse" color-interpolation-filters="sRGB">
<feFlood flood-opacity="0" result="BackgroundImageFix"/>
<feBlend mode="normal" in="SourceGraphic" in2="BackgroundImageFix" result="shape"/>
<feColorMatrix in="SourceAlpha" type="matrix" values="0 0 0 0 0 0 0 0 0 0 0 0 0 0 0 0 0 0 127 0" result="hardAlpha"/>
<feOffset dy="4"/>
<feGaussianBlur stdDeviation="2"/>
<feComposite in2="hardAlpha" operator="arithmetic" k2="-1" k3="1"/>
<feColorMatrix type="matrix" values="0 0 0 0 0 0 0 0 0 0 0 0 0 0 0 0 0 0 0.25 0"/>
<feBlend mode="normal" in2="shape" result="effect1_innerShadow_12_291"/>
</filter>
</defs>
</svg>
